<svg width="24" height="24" viewBox="0 0 24 24" fill="none" xmlns="http://www.w3.org/2000/svg">
<path d="M0 11C0 4.92487 4.92487 0 11 0H13C19.0751 0 24 4.92487 24 11V13C24 19.0751 19.0751 24 13 24H11C4.92487 24 0 19.0751 0 13V11Z" fill="white"/>
<path d="M17.6 6H6.4C5.76348 6 5.15303 6.23705 4.70294 6.65901C4.25286 7.08097 4 7.65326 4 8.25V15.75C4 16.3467 4.25286 16.919 4.70294 17.341C5.15303 17.7629 5.76348 18 6.4 18H17.6C18.2365 18 18.847 17.7629 19.2971 17.341C19.7471 16.919 20 16.3467 20 15.75V8.25C20 7.65326 19.7471 7.08097 19.2971 6.65901C18.847 6.23705 18.2365 6 17.6 6V6ZM17.272 7.5L12.568 11.91C12.4936 11.9803 12.4051 12.0361 12.3077 12.0742C12.2102 12.1122 12.1056 12.1318 12 12.1318C11.8944 12.1318 11.7898 12.1122 11.6923 12.0742C11.5949 12.0361 11.5064 11.9803 11.432 11.91L6.728 7.5H17.272ZM18.4 15.75C18.4 15.9489 18.3157 16.1397 18.1657 16.2803C18.0157 16.421 17.8122 16.5 17.6 16.5H6.4C6.18783 16.5 5.98434 16.421 5.83431 16.2803C5.68429 16.1397 5.6 15.9489 5.6 15.75V8.5575L10.304 12.9675C10.754 13.3889 11.364 13.6255 12 13.6255C12.636 13.6255 13.246 13.3889 13.696 12.9675L18.4 8.5575V15.75Z" fill="#154774"/>
</svg>
