<svg width="24" height="24" viewBox="0 0 24 24" fill="none" xmlns="http://www.w3.org/2000/svg">
<path d="M0 12C0 5.37258 5.37258 0 12 0V0C18.6274 0 24 5.37258 24 12V12C24 18.6274 18.6274 24 12 24V24C5.37258 24 0 18.6274 0 12V12Z" fill="#02020C"/>
<path d="M13.796 9.58216C13.8769 9.61315 13.9629 9.62866 14.0494 9.62791H16.6484C16.8207 9.62791 16.986 9.55905 17.1079 9.43648C17.2297 9.3139 17.2982 9.14765 17.2982 8.9743C17.2982 8.80096 17.2297 8.63471 17.1079 8.51213C16.986 8.38956 16.8207 8.32069 16.6484 8.32069H15.6153L17.753 6.17032C17.821 6.11172 17.8762 6.03962 17.9152 5.95853C17.9542 5.87744 17.9762 5.78912 17.9796 5.6991C17.9831 5.60909 17.968 5.51932 17.9353 5.43545C17.9027 5.35158 17.8531 5.2754 17.7898 5.2117C17.7265 5.148 17.6507 5.09816 17.5674 5.0653C17.484 5.03244 17.3948 5.01727 17.3053 5.02075C17.2158 5.02423 17.128 5.04627 17.0474 5.08551C16.9668 5.12474 16.8951 5.18031 16.8368 5.24873L14.6992 7.39257V6.35333C14.6992 6.17998 14.6307 6.01373 14.5089 5.89116C14.387 5.76858 14.2217 5.69972 14.0494 5.69972C13.8771 5.69972 13.7118 5.76858 13.59 5.89116C13.4681 6.01373 13.3997 6.17998 13.3997 6.35333V8.96777C13.3989 9.05484 13.4143 9.1413 13.4451 9.22268C13.4771 9.30297 13.5245 9.37608 13.5848 9.43779C13.645 9.4995 13.7168 9.54857 13.796 9.58216V9.58216ZM16.3235 12.1966C16.1806 12.1966 16.0312 12.1508 15.8882 12.1182C15.5987 12.054 15.3143 11.9688 15.037 11.8633C14.7356 11.7529 14.4043 11.7587 14.1068 11.8793C13.8093 12 13.5667 12.2271 13.4257 12.5169L13.2827 12.811C12.6499 12.4569 12.0683 12.017 11.5544 11.5038C11.0442 10.9868 10.6069 10.4018 10.2549 9.76517L10.5278 9.58216C10.8158 9.44027 11.0416 9.19622 11.1615 8.89698C11.2815 8.59773 11.2872 8.26443 11.1775 7.96121C11.0744 7.68174 10.9897 7.3957 10.9241 7.10498C10.8916 6.96119 10.8656 6.81086 10.8461 6.66053C10.7672 6.20014 10.5275 5.78321 10.1702 5.48484C9.8128 5.18646 9.36127 5.02625 8.8969 5.03304H6.94765C6.66763 5.03039 6.39033 5.08847 6.13463 5.20332C5.87892 5.31817 5.65082 5.4871 5.46585 5.6986C5.28088 5.9101 5.14339 6.1592 5.06272 6.42896C4.98206 6.69872 4.96012 6.98279 4.9984 7.26185C5.34455 10.0001 6.58771 12.5442 8.53152 14.4925C10.4753 16.4407 13.009 17.682 15.7323 18.0203H15.9792C16.4583 18.021 16.9209 17.8441 17.2787 17.5235C17.4842 17.3386 17.6484 17.1119 17.7604 16.8584C17.8724 16.6048 17.9297 16.3303 17.9284 16.0529V14.0921C17.9205 13.6381 17.7561 13.2009 17.4634 12.8552C17.1707 12.5095 16.7678 12.2767 16.3235 12.1966V12.1966ZM16.6484 16.1183C16.6483 16.2111 16.6285 16.3028 16.5904 16.3873C16.5524 16.4718 16.4968 16.5472 16.4275 16.6085C16.3549 16.6715 16.27 16.7186 16.1783 16.7468C16.0865 16.7749 15.9899 16.7835 15.8947 16.7719C13.4613 16.458 11.2011 15.3382 9.47045 13.589C7.73982 11.8398 6.63734 9.56081 6.33689 7.11152C6.32655 7.01577 6.33561 6.91892 6.36353 6.8268C6.39145 6.73468 6.43764 6.64921 6.49933 6.57556C6.56021 6.50584 6.63516 6.44996 6.71919 6.41164C6.80321 6.37333 6.89438 6.35345 6.98664 6.35333H8.93589C9.08698 6.34995 9.23453 6.39966 9.35312 6.4939C9.47171 6.58815 9.55393 6.72103 9.58564 6.86968C9.61162 7.04833 9.64411 7.22481 9.6831 7.3991C9.75816 7.74365 9.85805 8.08224 9.98198 8.4122L9.07233 8.83705C8.99456 8.87294 8.92459 8.92394 8.86647 8.98711C8.80834 9.05028 8.76318 9.12438 8.7336 9.20516C8.70402 9.28593 8.69059 9.37178 8.69408 9.45779C8.69757 9.5438 8.71792 9.62827 8.75396 9.70635C9.68908 11.7213 11.2992 13.3409 13.3022 14.2816C13.4604 14.347 13.6378 14.347 13.796 14.2816C13.877 14.2525 13.9515 14.2074 14.0151 14.1491C14.0787 14.0907 14.1301 14.0202 14.1664 13.9417L14.5692 13.0267C14.9051 13.1475 15.2479 13.2479 15.5958 13.3273C15.7691 13.3666 15.9445 13.3992 16.1221 13.4254C16.2699 13.4573 16.402 13.54 16.4957 13.6593C16.5894 13.7786 16.6388 13.927 16.6354 14.079L16.6484 16.1183Z" fill="white"/>
</svg>
